#!OML:ASF F:\VICON\USERDATA\INSTALL\Justin_Nancy\Justin_Nancy.ASF
:FULLY-SPECIFIED
:DEGREES
409
root -9.85696 17.4973 11.9908 129.845 -83.853 -128.132
lowerback 6.75522 2.38363 2.24147
upperback 0.190667 3.41631 3.53926
thorax -3.6759 1.65911 2.07016
lowerneck -16.106 -4.33162 -8.45725
upperneck 25.3971 -5.50742 4.82164
head 11.285 -2.86671 2.36108
rclavicle 1.13804e-014 4.05521e-014
rhumerus -28.9159 -6.85167 -82.3922
rradius 35.2931
rwrist 0.873828
rhand -15.4881 11.8985
rfingers 7.12502
rthumb 10.6939 -17.8093
lclavicle 1.13804e-014 4.05521e-014
lhumerus -30.564 13.2653 83.3653
lradius 24.1642
lwrist -9.46632
lhand -13.8485 25.4031
lfingers 7.12502
lthumb 12.2752 55.0228
rfemur 0.541968 4.02749 33.1745
rtibia 15.1769
rfoot -13.1822 -3.67793
rtoes 25.9921
lfemur -30.8224 2.49519 -13.1821
ltibia 50.6035
lfoot -7.33825 6.27497
ltoes -0.328709
410
root -9.98695 17.4678 12.0041 129.583 -83.5802 -127.833
lowerback 6.78711 2.38882 2.57567
upperback 0.16952 3.44876 3.51064
thorax -3.69488 1.66799 1.84916
lowerneck -16.0653 -4.34289 -8.39983
upperneck 25.2935 -5.5586 4.90101
head 11.2419 -2.87366 2.3729
rclavicle 1.14798e-014 -1.19271e-014
rhumerus -28.7577 -5.88954 -82.6408
rradius 35.8353
rwrist 0.18216
rhand -15.7599 11.8403
rfingers 7.12502
rthumb 10.4318 -17.8809
lclavicle 1.14798e-014 -1.19271e-014
lhumerus -30.8013 13.8181 83.1131
lradius 24.2154
lwrist -9.84474
lhand -13.7896 25.8452
lfingers 7.12502
lthumb 12.3319 55.4616
rfemur 1.10297 4.29873 33.4345
rtibia 15.0278
rfoot -14.0587 -4.34074
rtoes 23.1304
lfemur -31.0259 3.0655 -13.1583
ltibia 48.6881
lfoot -7.05299 6.00114
ltoes -8.68894
411
root -10.118 17.468 12.0146 130.487 -83.4415 -128.661
lowerback 6.74061 2.37202 2.6329
upperback 0.159233 3.42828 3.48406
thorax -3.67407 1.65689 1.79342
lowerneck -16.0181 -4.33092 -8.52954
upperneck 25.164 -5.56071 5.11779
head 11.1947 -2.85954 2.47405
rclavicle 1.42628e-014 3.97569e-016
rhumerus -28.445 -5.25074 -82.7891
rradius 36.1806
rwrist -0.0633766
rhand -15.9647 11.9179
rfingers 7.12502
rthumb 10.2342 -17.8131
lclavicle 1.42628e-014 3.97569e-016
lhumerus -31.0135 14.1364 83.0071
lradius 24.3017
lwrist -10.0576
lhand -13.6397 26.336
lfingers 7.12502
lthumb 12.4765 55.9435
rfemur 1.58219 4.65166 33.4731
rtibia 14.9272
rfoot -14.6395 -4.79644
rtoes 22.5518
lfemur -31.0697 2.73 -12.8878
ltibia 46.7242
lfoot -7.55924 5.63916
ltoes -5.38017
412
root -10.2505 17.4604 12.0236 131.649 -83.3439 -129.702
lowerback 6.62798 2.37831 2.80513
upperback 0.172998 3.44027 3.32178
thorax -3.57626 1.66064 1.53315
lowerneck -16.2014 -4.27947 -8.27615
upperneck 25.2034 -5.52691 5.06567
head 11.2324 -2.82269 2.4153
rclavicle -1.78906e-014 -3.57812e-014
rhumerus -28.0603 -4.96461 -83.0917
rradius 36.4126
rwrist 0.122528
rhand -16.3845 11.8001
rfingers 7.12502
rthumb 9.82923 -17.9505
lclavicle -1.78906e-014 -3.57812e-014
lhumerus -31.07 13.915 82.8945
lradius 24.4027
lwrist -9.81597
lhand -13.468 26.0926
lfingers 7.12502
lthumb 12.642 55.69
rfemur 2.08399 5.14961 33.5346
rtibia 14.7438
rfoot -14.5388 -5.06854
rtoes 24.4326
lfemur -31.1613 2.28733 -12.7492
ltibia 44.7147
lfoot -7.89646 5.67202
ltoes -2.05539
413
root -10.3863 17.4332 12.0288 131.686 -83.0914 -129.554
lowerback 6.42293 2.4654 3.11246
upperback 0.162251 3.56694 3.30387
thorax -3.45352 1.71901 1.34052
lowerneck -16.1934 -4.33653 -8.15043
upperneck 25.0525 -5.5727 4.86339
head 11.1675 -2.85205 2.31208
rclavicle -5.2181e-015 -1.55052e-014
rhumerus -27.826 -5.15801 -83.119
rradius 36.7022
rwrist 0.448472
rhand -16.0314 11.8952
rfingers 7.12502
rthumb 10.1699 -17.839
lclavicle -5.2181e-015 -1.55052e-014
lhumerus -31.0635 13.7385 82.9533
lradius 24.4004
lwrist -9.56815
lhand -13.4315 25.6372
lfingers 7.12502
lthumb 12.6772 55.2325
rfemur 2.64251 5.00671 33.7853
rtibia 14.3086
rfoot -14.1003 -4.6153
rtoes 25.2826
lfemur -31.4459 2.77913 -12.7481
ltibia 42.6886
lfoot -7.54088 5.59125
ltoes -8.14804
414
root -10.5231 17.4156 12.0382 133.137 -82.9062 -130.8
lowerback 6.20788 2.68071 3.10068
upperback 0.119696 3.84431 3.28997
thorax -3.37768 1.85843 1.31677
lowerneck -15.9855 -4.46908 -8.17049
upperneck 24.7445 -5.74985 4.86132
head 11.0258 -2.93235 2.28951
rclavicle -9.24349e-015 9.93923e-015
rhumerus -27.6002 -5.70401 -82.8908
rradius 36.8303
rwrist 0.624242
rhand -15.4113 12.2222
rfingers 7.12502
rthumb 10.768 -17.4818
lclavicle -9.24349e-015 9.93923e-015
lhumerus -31.0497 13.1176 83.1949
lradius 24.4177
lwrist -8.96383
lhand -14.3739 26.0369
lfingers 7.12502
lthumb 11.7686 55.6863
rfemur 3.08268 4.276 33.7047
rtibia 13.8668
rfoot -13.697 -3.55232
rtoes 24.8802
lfemur -31.6414 3.0353 -12.7983
ltibia 40.6287
lfoot -7.4823 5.53636
ltoes -10.9974
415
root -10.6554 17.4111 12.0563 134.071 -82.6475 -131.686
lowerback 6.2609 2.86017 3.25917
upperback 0.088337 4.09774 3.23562
thorax -3.42559 1.9806 1.14689
lowerneck -16.0052 -4.5399 -8.06914
upperneck 24.7194 -5.89248 4.92562
head 11.0295 -2.97865 2.27425
rclavicle 1.09332e-014 -3.02153e-014
rhumerus -27.4853 -5.47141 -82.8937
rradius 37.1005
rwrist 0.542158
rhand -15.7395 11.9541
rfingers 7.12502
rthumb 10.4515 -17.7661
lclavicle 1.09332e-014 -3.02153e-014
lhumerus -31.0661 12.6457 83.3578
lradius 24.3566
lwrist -8.57237
lhand -15.3743 26.3097
lfingers 7.12502
lthumb 10.8037 56.0118
rfemur 3.65282 4.01338 33.782
rtibia 13.4486
rfoot -13.5761 -3.31313
rtoes 23.7781
lfemur -31.5138 2.33659 -12.3562
ltibia 38.5759
lfoot -8.19418 5.78941
ltoes -6.72326
416
root -10.7863 17.4145 12.0717 136.025 -82.6668 -133.498
lowerback 6.17946 2.89468 2.99221
upperback 0.0450578 4.12464 3.20919
thorax -3.44155 1.99945 1.26818
lowerneck -16.0172 -4.50098 -7.92618
upperneck 24.6297 -5.84171 4.832
head 10.9863 -2.95144 2.2233
rclavicle -2.10712e-014 2.78299e-014
rhumerus -27.1592 -5.2688 -82.976
rradius 37.0552
rwrist 0.826503
rhand -16.322 11.9759
rfingers 7.12502
rthumb 9.88952 -17.7718
lclavicle -2.10712e-014 2.78299e-014
lhumerus -31.2715 12.7548 83.3927
lradius 24.5193
lwrist -8.21773
lhand -15.1077 26.0261
lfingers 7.12502
lthumb 11.0609 55.7146
rfemur 4.20811 4.18671 33.5765
rtibia 13.0266
rfoot -13.6141 -3.54396
rtoes 23.3275
lfemur -31.4546 1.44085 -12.1235
ltibia 36.5458
lfoot -9.15053 5.88424
ltoes -1.35604
417
root -10.9366 17.4149 12.0926 138.171 -82.7584 -135.577
lowerback 5.95751 2.86822 2.82785
upperback 0.0852336 4.06482 3.11954
thorax -3.27986 1.97542 1.28478
lowerneck -16.1265 -4.40729 -7.61474
upperneck 24.5504 -5.6936 4.53338
head 10.9469 -2.88656 2.0828
rclavicle -6.98231e-014 -2.34566e-014
rhumerus -26.7468 -5.80945 -83.0037
rradius 36.8709
rwrist 1.35378
rhand -16.098 12.5596
rfingers 7.12502
rthumb 10.1056 -17.1778
lclavicle -6.98231e-014 -2.34566e-014
lhumerus -31.4744 12.8021 83.4444
lradius 24.7705
lwrist -7.73974
lhand -14.561 26.1939
lfingers 7.12502
lthumb 11.5882 55.8535
rfemur 5.04923 4.2863 33.1523
rtibia 12.3905
rfoot -13.6543 -3.31739
rtoes 24.2646
lfemur -31.3736 0.738989 -12.2677
ltibia 34.6186
lfoot -9.60189 6.22882
ltoes -1.4335
418
root -11.0744 17.395 12.1002 138.78 -82.514 -135.966
lowerback 5.80635 2.98601 2.93145
upperback -0.0124199 4.22586 3.0936
thorax -3.28751 2.05372 1.19239
lowerneck -16.0705 -4.44192 -7.37639
upperneck 24.5614 -5.76615 4.35074
head 10.931 -2.9208 1.96671
rclavicle 7.45443e-016 -1.31198e-014
rhumerus -26.644 -6.08068 -82.9551
rradius 36.9333
rwrist 1.54325
rhand -15.1408 12.942
rfingers 7.12502
rthumb 11.0289 -16.7482
lclavicle 7.45443e-016 -1.31198e-014
lhumerus -31.6377 12.6512 83.5191
lradius 24.8494
lwrist -7.72824
lhand -14.2398 26.2623
lfingers 7.12502
lthumb 11.8978 55.9043
rfemur 5.61463 4.53077 33.3145
rtibia 11.8633
rfoot -13.5721 -3.387
rtoes 23.396
lfemur -31.5458 1.00083 -12.1738
ltibia 32.7615
lfoot -9.49402 6.17749
ltoes -6.65451
419
root -11.2191 17.3824 12.1202 137.969 -82.1286 -135.301
lowerback 5.94545 3.02168 3.33576
upperback 0.0301593 4.30316 3.1771
thorax -3.29853 2.08337 1.0419
lowerneck -16.1161 -4.50782 -7.58776
upperneck 24.675 -5.83896 4.468
head 10.9988 -2.9606 2.03308
rclavicle -4.85035e-014 1.03368e-014
rhumerus -26.4745 -5.69449 -82.8555
rradius 37.0264
rwrist 1.39335
rhand -14.9198 12.9217
rfingers 7.12502
rthumb 11.2421 -16.757
lclavicle -4.85035e-014 1.03368e-014
lhumerus -31.7897 12.7258 83.601
lradius 24.9197
lwrist -7.66045
lhand -14.5934 26.3107
lfingers 7.12502
lthumb 11.5569 55.972
rfemur 6.51388 4.73296 33.6183
rtibia 11.3865
rfoot -13.457 -3.50798
rtoes 22.9439
lfemur -31.2566 0.0493403 -11.5697
ltibia 31.0561
lfoot -9.58879 7.20924
ltoes -9.13541
420
root -11.3573 17.3876 12.1304 139.898 -81.9661 -137.013
lowerback 5.73097 3.06764 3.18273
upperback -0.00665819 4.34574 3.17753
thorax -3.22757 2.1088 1.13439
lowerneck -16.1417 -4.54867 -7.89707
upperneck 24.582 -5.87997 4.75681
head 10.9925 -2.97116 2.18304
rclavicle 1.39149e-014 1.94809e-014
rhumerus -26.1701 -5.30047 -82.8868
rradius 36.9263
rwrist 0.932874
rhand -15.545 12.6247
rfingers 7.12502
rthumb 10.6391 -17.086
lclavicle 1.39149e-014 1.94809e-014
lhumerus -31.9168 13.0991 83.4938
lradius 25.0896
lwrist -7.37715
lhand -14.8075 26.1864
lfingers 7.12502
lthumb 11.3504 55.8593
rfemur 7.07198 4.84571 33.4424
rtibia 10.8209
rfoot -13.2229 -3.27365
rtoes 23.3512
lfemur -31.3123 -1.36453 -11.0265
ltibia 29.5827
lfoot -10.4557 8.29578
ltoes -2.97045
421
root -11.5055 17.3805 12.1357 141.572 -81.7984 -138.599
lowerback 5.53027 3.1559 2.98884
upperback 0.00687453 4.44129 3.21988
thorax -3.11902 2.16163 1.28948
lowerneck -16.1243 -4.54933 -8.05185
upperneck 24.4648 -5.86199 4.87738
head 10.9535 -2.96101 2.25537
rclavicle 1.85367e-014 -3.57812e-015
rhumerus -26.0007 -4.82829 -82.9065
rradius 36.9846
rwrist 0.255956
rhand -15.8995 12.3485
rfingers 7.12502
rthumb 10.2971 -17.3794
lclavicle 1.85367e-014 -3.57812e-015
lhumerus -32.0471 13.3138 83.4971
lradius 25.1851
lwrist -7.4525
lhand -14.5644 26.1325
lfingers 7.12502
lthumb 11.5849 55.7922
rfemur 7.71234 4.88364 33.4174
rtibia 10.3294
rfoot -12.8633 -3.70271
rtoes 19.5632
lfemur -31.2807 -2.59178 -10.576
ltibia 28.2863
lfoot -11.2134 9.38258
ltoes 1.3583
422
root -11.6557 17.3645 12.1413 142.247 -81.5527 -139.182
lowerback 5.33072 3.22002 3.00695
upperback -0.00542611 4.51827 3.2408
thorax -3.02043 2.20096 1.30638
lowerneck -16.0465 -4.4887 -7.87149
upperneck 24.4019 -5.79192 4.74238
head 10.8989 -2.92951 2.18762
rclavicle 1.2424e-015 -1.19271e-015
rhumerus -25.8215 -5.21049 -82.8295
rradius 36.8529
rwrist 0.747219
rhand -15.7953 12.3225
rfingers 7.12502
rthumb 10.3977 -17.4004
lclavicle 1.2424e-015 -1.19271e-015
lhumerus -32.2129 13.2414 83.5063
lradius 25.297
lwrist -7.50546
lhand -14.0866 26.265
lfingers 7.12502
lthumb 12.0456 55.8983
rfemur 8.2378 5.1146 33.6063
rtibia 10.1543
rfoot -12.6689 -4.35307
rtoes 15.7008
lfemur -31.3691 -2.88999 -10.3085
ltibia 27.1818
lfoot -11.3951 10.1485
ltoes 0.812633
423
root -11.7954 17.3652 12.1745 143.875 -81.3291 -140.665
lowerback 5.29111 3.34357 3.22636
upperback -0.0914525 4.69651 3.10554
thorax -3.05881 2.28533 1.03225
lowerneck -16.0251 -4.51266 -7.70631
upperneck 24.4005 -5.84255 4.62705
head 10.8883 -2.95151 2.11095
rclavicle 2.83268e-014 3.02153e-014
rhumerus -25.7098 -5.95032 -82.7085
rradius 36.6501
rwrist 1.58797
rhand -15.9639 12.3261
rfingers 7.12502
rthumb 10.2349 -17.4049
lclavicle 2.83268e-014 3.02153e-014
lhumerus -32.4167 13.1399 83.5192
lradius 25.467
lwrist -7.61818
lhand -13.952 26.065
lfingers 7.12502
lthumb 12.1754 55.6907
rfemur 8.58751 5.27806 33.3316
rtibia 10.1568
rfoot -12.6908 -3.91784
rtoes 16.6925
lfemur -31.5301 -3.84459 -10.0109
ltibia 26.3213
lfoot -11.8382 11.375
ltoes 2.28623
